<?xml version="1.0" standalone="no"?><!DOCTYPE svg PUBLIC "-//W3C//DTD SVG 1.1//EN" "http://www.w3.org/Graphics/SVG/1.1/DTD/svg11.dtd"><svg t="1676809871573" class="icon" viewBox="0 0 1024 1024" version="1.1" xmlns="http://www.w3.org/2000/svg" p-id="7450" xmlns:xlink="http://www.w3.org/1999/xlink" width="200" height="200"><path d="M310.72 435.76v203.68H267.64v-84.28H188.88v84.28H145.52v-203.68h43.36v83.04h78.76v-83.04h43.08zM397.44 472.08H332.68v-36.32h175.56v36.32H440.8v167.32H397.44v-167.32zM575.76 472.08h-64.72v-36.32h175.56v36.32h-67.48v167.32h-43.36v-167.32zM752.24 568.28v71.16h-43.36v-203.68h101.68c18.52 0 31.76 1.32 39.68 3.96 13.44 4.48 24 13.76 31.76 27.8 5.68 10.6 8.56 22.08 8.56 34.52 0 10.4-1.88 20.2-5.64 29.48-3.76 9.28-9 16.84-15.72 22.76-6.12 5.28-12.56 8.96-19.4 11-6.84 2.04-16.12 3.04-27.96 3.04h-69.6z m0-36.32h58.92c10.6 0 18-1.64 22.28-4.88 6.32-5.08 9.48-13.96 9.48-26.56 0-13.64-4.8-22.4-14.36-26.28-3.48-1.4-8.96-2.12-16.48-2.12h-59.84v59.84z" fill="#109fee" p-id="7451"></path><path d="M930.96 797.96H91.08c-44.64 0-80.92-36.32-80.92-80.96v-356.4c0-44.64 36.32-80.96 80.92-80.96h839.88c44.64 0 80.96 36.32 80.96 80.96v356.44c-0.04 44.64-36.32 80.92-80.96 80.92zM91.08 327.68c-18.16 0-32.92 14.76-32.92 32.96v356.44c0 18.16 14.76 32.96 32.92 32.96h839.88c18.16 0 32.96-14.76 32.96-32.96V360.6c0-18.16-14.76-32.96-32.96-32.96H91.08z" fill="#109fee" p-id="7452"></path></svg>