<?xml version="1.0" standalone="no"?><!DOCTYPE svg PUBLIC "-//W3C//DTD SVG 1.1//EN" "http://www.w3.org/Graphics/SVG/1.1/DTD/svg11.dtd"><svg t="1676809634531" class="icon" viewBox="0 0 1024 1024" version="1.1" xmlns="http://www.w3.org/2000/svg" p-id="4744" xmlns:xlink="http://www.w3.org/1999/xlink" width="200" height="200"><path d="M202.315481 118.028683l5.934513-4.747611a494.226252 494.226252 0 0 1 637.604089 6.646655 87.593414 87.593414 0 0 1 99.225059 42.491114 90.916741 90.916741 0 0 1-126.286439 120.589306 86.881272 86.881272 0 0 1-38.693025-100.411962A403.546892 403.546892 0 0 0 265.22132 181.171902l-5.459752 4.27285-2.373805 2.136424a44.152778 44.152778 0 1 1-57.920848-67.178688l1.899044-1.424283z m795.699518 274.649267a498.499101 498.499101 0 0 1-180.171818 474.761048A519.625968 519.625968 0 0 1 668.768212 950.759563a92.815785 92.815785 0 0 1-82.371042 72.875821 86.881272 86.881272 0 0 1-90.2046-58.63299 90.916741 90.916741 0 0 1 144.327359-98.275537A427.284944 427.284944 0 0 0 763.720421 798.836027a408.531883 408.531883 0 0 0 147.650687-387.642397 44.864919 44.864919 0 0 1 14.005451-42.965875 45.814441 45.814441 0 0 1 44.390158-9.969982 43.440636 43.440636 0 0 1 29.435185 33.233274z m-660.155238 560.218037a477.609615 477.609615 0 0 1-302.660169-569.713258 88.542936 88.542936 0 0 1-5.934513-111.568847A90.67936 90.67936 0 0 1 132.050846 237.431087a86.881272 86.881272 0 0 1 59.10775 88.068174 91.866263 91.866263 0 0 1-71.214157 82.845803 392.627387 392.627387 0 0 0 75.724387 338.504628 385.031211 385.031211 0 0 0 171.62612 122.01359 42.728494 42.728494 0 0 1 31.334229 32.995892 45.577061 45.577061 0 0 1-35.607079 53.647999A47.476105 47.476105 0 0 1 336.435477 954.32027z" fill="#66B346" p-id="4745"></path><path d="M284.449143 505.90846l136.968562 104.21005a23.738052 23.738052 0 0 0 17.091398 0l337.792486-276.548311a30.859468 30.859468 0 0 1 39.405167 19.465203 32.283751 32.283751 0 0 1 0 20.652106c-32.521132 32.521132-364.616486 346.812946-364.616485 346.812946a47.476105 47.476105 0 0 1-42.491114 0c-20.889486-20.414725-159.994473-170.201836-159.994474-170.201836a40.354689 40.354689 0 0 1 35.84446-44.390158z" fill="#66B346" p-id="4746"></path></svg>